<?xml version="1.0" standalone="no"?>
<!DOCTYPE svg PUBLIC "-//W3C//DTD SVG 20010904//EN"
 "http://www.w3.org/TR/2001/REC-SVG-20010904/DTD/svg10.dtd">
<svg version="1.0" xmlns="http://www.w3.org/2000/svg"
 width="500.000000pt" height="500.000000pt" viewBox="0 0 500.000000 500.000000"
 preserveAspectRatio="xMidYMid meet">
<metadata>
Created by potrace 1.14, written by Peter Selinger 2001-2017
</metadata>
<g transform="translate(0.000000,500.000000) scale(0.100000,-0.100000)"
fill="#000000" stroke="none">
<path d="M2538 4395 c-2 -2 -55 -5 -118 -8 -63 -3 -140 -10 -170 -16 -30 -5
-71 -12 -90 -16 -101 -17 -239 -64 -350 -116 -150 -71 -258 -153 -376 -282
-23 -27 -91 -135 -108 -172 -9 -22 -21 -48 -26 -57 -28 -50 -52 -180 -55 -293
-5 -175 19 -293 85 -426 127 -257 376 -449 805 -622 84 -34 306 -113 345 -122
6 -2 11 -4 150 -55 258 -95 401 -188 446 -290 9 -19 20 -44 25 -55 21 -46 26
-149 12 -220 -18 -86 -48 -140 -110 -195 -101 -89 -207 -121 -413 -125 -214
-4 -319 15 -455 83 -154 77 -258 244 -266 427 -3 82 33 75 -376 75 l-366 0 7
-87 c3 -49 8 -99 11 -113 3 -14 8 -38 11 -54 2 -16 7 -32 9 -36 2 -3 6 -17 8
-31 16 -83 100 -245 179 -346 49 -62 205 -213 220 -213 5 0 29 -15 55 -33 134
-94 412 -201 578 -223 22 -3 47 -7 55 -10 54 -18 410 -25 555 -10 67 6 144 19
190 30 6 1 26 6 45 10 76 17 219 70 302 113 324 167 496 438 503 791 6 350
-122 611 -406 827 -33 25 -62 45 -65 45 -3 0 -25 14 -50 31 -56 38 -234 127
-339 169 -93 38 -299 109 -334 116 -13 3 -79 25 -145 49 -394 143 -537 264
-541 460 -5 186 121 330 340 391 93 25 319 27 417 3 234 -57 370 -209 392
-439 2 -25 5 -47 5 -50 2 -11 716 -6 723 5 4 5 5 42 2 80 -28 358 -238 671
-564 838 -191 98 -374 149 -585 163 -49 3 -107 7 -127 8 -21 2 -39 2 -40 1z"/>
</g>
</svg>
